<svg width="68" height="68" viewBox="0 0 68 68" fill="none" xmlns="http://www.w3.org/2000/svg">
<path d="M67.5202 48.428C67.2988 47.2244 66.6467 46.0736 65.6673 45.1126C67.6296 42.7461 68.097 39.3352 66.5799 36.4487C65.605 34.5939 63.9662 33.2298 61.9655 32.6076C60.9665 32.2968 59.9371 32.1898 58.9257 32.2817C58.6891 30.9322 58.1112 29.7444 57.2466 28.8806C55.623 27.2586 52.8825 26.7361 50.2645 27.5497C49.9067 27.6609 49.5597 27.7945 49.223 27.9451L48.6398 26.8356C46.9648 23.6485 43.0092 22.4184 39.8221 24.0935L36.9649 25.5952C36.0416 26.0804 35.3627 26.8961 35.053 27.8921C34.8945 28.4014 34.8431 28.9266 34.8949 29.4417H12.2593C9.08732 29.4417 6.50677 32.0224 6.50677 35.1943V39.7971C6.50677 40.3474 6.95276 40.7932 7.50287 40.7932C8.05298 40.7932 8.49896 40.3474 8.49896 39.7971V35.1943C8.49896 33.1208 10.1858 31.4339 12.2593 31.4339H22.674L8.49896 55.1596V43.8313C8.49896 43.2811 8.05298 42.8352 7.50287 42.8352C6.95276 42.8352 6.50677 43.2811 6.50677 43.8313V64.5726C6.50677 66.4624 8.04421 68 9.93413 68H42.144C44.0337 68 45.5713 66.4626 45.5713 64.5726V50.3636L53.4511 65.3561C54.149 66.684 55.5089 67.4438 56.914 67.4438C57.5258 67.4438 58.1461 67.2997 58.7241 66.9959L61.5815 65.4941C64.7684 63.8192 65.9985 59.8635 64.3236 56.6764L63.7415 55.5688C64.0566 55.377 64.3626 55.1649 64.6569 54.9334C66.8111 53.2384 67.9351 50.685 67.5202 48.428ZM62.56 57.6033C63.724 59.8181 62.8691 62.5668 60.6544 63.7307L57.7971 65.2326C56.8637 65.7229 55.7049 65.3627 55.2143 64.4293L37.0884 29.9414C36.8507 29.4892 36.8034 28.9715 36.9551 28.4835C37.1068 27.9957 37.4393 27.5962 37.8917 27.3584L40.7489 25.8567C42.9364 24.7071 45.7279 25.5773 46.8762 27.7622L62.56 57.6033ZM42.1438 66.0078H34.3484L43.5789 50.5581V64.5726C43.579 65.3639 42.9351 66.0078 42.1438 66.0078ZM32.0278 66.0078H24.5524L40.1087 39.9703L43.579 46.5731V46.674L32.0278 66.0078ZM22.2316 66.0078H14.1343L34.7911 31.4339H35.6223L39.0227 37.9039L22.2316 66.0078ZM8.49896 64.5726V59.0438L24.9949 31.4338H32.4704L11.8136 66.0078H9.934C9.1427 66.0078 8.49896 65.3639 8.49896 64.5726ZM52.7339 29.1543C54.1522 29.1543 55.2406 29.6929 55.8385 30.2902C56.6929 31.1436 57.1321 32.5266 57.0435 34.0845C57.0102 34.6711 56.9365 35.4202 56.7802 36.1846C55.7337 35.9778 54.6643 36.0474 53.6584 36.3845L50.1515 29.712C50.9652 29.3654 51.8468 29.1543 52.7339 29.1543ZM64.8164 37.3754C65.5437 38.7591 65.6884 40.3433 65.2242 41.8359C64.9844 42.607 64.5958 43.3052 64.0863 43.9012C63.3811 43.4764 62.5777 43.0529 61.7293 42.7179C61.8253 41.5653 61.5943 40.4071 61.0432 39.3586C60.492 38.3099 59.6692 37.463 58.6654 36.8883C58.8705 35.9998 58.9774 35.0981 59.0273 34.2765C59.8162 34.194 60.616 34.2743 61.3737 34.5097C62.8666 34.9741 64.0891 35.9918 64.8164 37.3754ZM59.5695 43.454C59.3408 44.1896 58.9226 44.8325 58.3598 45.33L54.603 38.182C55.3358 37.9997 56.1136 38.0257 56.8342 38.2499C57.8945 38.5795 58.7629 39.3025 59.2797 40.2855C59.7963 41.2684 59.8993 42.3936 59.5695 43.454ZM59.3047 47.1275C60.1525 46.4902 60.8162 45.649 61.2393 44.6703C61.9576 44.9751 62.6167 45.3387 63.1188 45.6439C64.4522 46.4545 65.3423 47.6005 65.5607 48.7883C65.7755 49.9566 65.345 51.8569 63.4248 53.3677C63.2263 53.5237 63.0211 53.667 62.8114 53.8L59.3047 47.1275Z" fill="url(#paint0_linear_37_474)"/>
<path d="M10.9765 13.1097C12.8943 14.5058 14.3318 16.5241 15.0243 18.793C15.5586 20.544 17.4039 21.5989 19.1849 21.1698C21.1112 20.7057 22.2872 18.6521 21.7076 16.7534C20.5756 13.0436 18.2251 9.74339 15.0891 7.46021C13.5315 6.32679 11.3421 6.67157 10.2083 8.22867C9.07431 9.78616 9.41896 11.9757 10.9765 13.1097ZM11.8188 9.40113C12.2994 8.74092 13.2542 8.58899 13.9165 9.07096C16.7052 11.1011 18.7954 14.036 19.802 17.335C20.3715 19.2006 17.4944 20.0627 16.9295 18.2115C16.1117 15.5319 14.4139 13.148 12.1488 11.4992C11.4795 11.0118 11.3315 10.0706 11.8188 9.40113Z" fill="url(#paint1_linear_37_474)"/>
<path d="M32.7027 19.2979C32.9623 22.3323 36.8899 23.5852 38.8559 21.2509C43.1308 16.1765 50.1273 13.5664 56.6815 14.6003C58.5846 14.9019 60.3769 13.5968 60.6773 11.6938C60.9773 9.7925 59.6738 7.99993 57.7708 7.69805C48.8513 6.29037 39.3293 9.84297 33.5118 16.7491C32.9105 17.4628 32.6232 18.3681 32.7027 19.2979ZM57.4594 9.66566C58.2776 9.79556 58.8384 10.566 58.7094 11.3832C58.5803 12.2012 57.8099 12.7622 56.9919 12.6324C49.764 11.4922 42.0469 14.3707 37.3322 19.9675C36.0916 21.4408 33.7792 19.5239 35.0353 18.0327C40.413 11.6488 49.2152 8.36516 57.4594 9.66566Z" fill="url(#paint2_linear_37_474)"/>
<path d="M22.9535 11.1559L24.6524 12.0852C24.69 12.1056 24.7208 12.1366 24.7413 12.174L25.6703 13.8727C26.4919 15.3751 28.7368 15.376 29.5589 13.8727L30.4881 12.174C30.5087 12.1364 30.5395 12.1056 30.5771 12.085L32.2757 11.1559C33.7781 10.3343 33.779 8.08938 32.2757 7.2674L30.5774 6.33865C30.5396 6.31793 30.5087 6.28698 30.4881 6.24926L29.5589 4.55059C28.7373 3.04822 26.4924 3.04729 25.6703 4.55059L24.7413 6.24926C24.7207 6.28698 24.6897 6.31779 24.6523 6.33838L22.9536 7.2674C21.4511 8.08898 21.4503 10.3338 22.9535 11.1559ZM23.9095 9.01522L25.6084 8.08606C25.9809 7.88219 26.2855 7.57752 26.4891 7.20512L27.4181 5.50644C27.5491 5.35119 27.68 5.35119 27.811 5.50644L28.74 7.20485C28.9435 7.57726 29.248 7.88193 29.6211 8.08619L31.3199 9.01522C31.4751 9.14617 31.4751 9.27712 31.3199 9.40808L29.6212 10.3372C29.2487 10.541 28.944 10.8455 28.7403 11.2182L27.8111 12.9168C27.6801 13.0721 27.5492 13.0721 27.4182 12.9168L26.4891 11.2179C26.2852 10.8454 25.9805 10.5407 25.6083 10.3372L23.9095 9.40808C23.7542 9.27712 23.7542 9.14617 23.9095 9.01522Z" fill="url(#paint3_linear_37_474)"/>
<path d="M8.12724 26.159L9.05626 24.4604C9.07685 24.4227 9.10766 24.3918 9.14538 24.3712L10.8442 23.4421C12.3464 22.6204 12.3474 20.3755 10.8442 19.5535L9.14524 18.6244C9.10766 18.6039 9.07685 18.573 9.05639 18.5355L8.12737 16.8367C7.27232 15.3698 5.08038 15.2981 4.23875 16.8367L3.3096 18.5355C3.28901 18.5731 3.25833 18.6039 3.22061 18.6245L1.52181 19.5535C0.0195635 20.3752 0.0186338 22.6202 1.52181 23.4421L3.22074 24.3713C3.25833 24.3918 3.28901 24.4226 3.3096 24.4602L4.23875 26.159C5.06033 27.6613 7.30513 27.6623 8.12724 26.159ZM7.30845 23.5043L6.37942 25.2031C6.24847 25.3584 6.11752 25.3584 5.98656 25.2031L5.05741 23.5043C4.85367 23.1316 4.549 22.827 4.17646 22.6234L2.47779 21.6943C2.32253 21.5634 2.32253 21.4323 2.47779 21.3013L4.17646 20.3724C4.54913 20.1687 4.85381 19.864 5.05754 19.4914L5.9867 17.7927C6.11765 17.6374 6.2486 17.6374 6.37956 17.7926L7.30871 19.4916C7.51258 19.8642 7.81725 20.1688 8.18953 20.3723L9.8882 21.3013C10.0435 21.4323 10.0435 21.5634 9.8882 21.6943L8.18953 22.6232C7.81699 22.8268 7.51245 23.1315 7.30845 23.5043Z" fill="url(#paint4_linear_37_474)"/>
<path d="M27.1166 19.2756C25.0874 19.2756 23.4364 20.9266 23.4364 22.9557C23.4364 24.985 25.0874 26.636 27.1166 26.636C29.1459 26.636 30.7969 24.985 30.7969 22.9557C30.7969 20.9265 29.1459 19.2756 27.1166 19.2756ZM27.1166 24.6438C26.1859 24.6438 25.4286 23.8865 25.4286 22.9557C25.4286 22.025 26.1859 21.2678 27.1166 21.2678C28.0474 21.2678 28.8047 22.025 28.8047 22.9557C28.8047 23.8865 28.0474 24.6438 27.1166 24.6438Z" fill="url(#paint5_linear_37_474)"/>
<path d="M39.1019 7.36047C41.1311 7.36047 42.782 5.70948 42.782 3.68023C42.782 1.65099 41.1311 0 39.1019 0C37.0727 0 35.4217 1.65099 35.4217 3.68023C35.4217 5.70948 37.0727 7.36047 39.1019 7.36047ZM39.1019 1.99219C40.0326 1.99219 40.7898 2.74948 40.7898 3.68023C40.7898 4.61098 40.0325 5.36828 39.1019 5.36828C38.1711 5.36828 37.4138 4.61098 37.4138 3.68023C37.4138 2.74948 38.1711 1.99219 39.1019 1.99219Z" fill="url(#paint6_linear_37_474)"/>
<defs>
<linearGradient id="paint0_linear_37_474" x1="37.0561" y1="23.3446" x2="37.0561" y2="68" gradientUnits="userSpaceOnUse">
<stop stop-color="#F58E44"/>
<stop offset="1" stop-color="#EF4D6B"/>
</linearGradient>
<linearGradient id="paint1_linear_37_474" x1="15.6981" y1="6.7926" x2="15.6981" y2="21.2654" gradientUnits="userSpaceOnUse">
<stop stop-color="#F58E44"/>
<stop offset="1" stop-color="#EF4D6B"/>
</linearGradient>
<linearGradient id="paint2_linear_37_474" x1="46.705" y1="7.39368" x2="46.705" y2="22.4615" gradientUnits="userSpaceOnUse">
<stop stop-color="#F58E44"/>
<stop offset="1" stop-color="#EF4D6B"/>
</linearGradient>
<linearGradient id="paint3_linear_37_474" x1="27.6146" y1="3.42346" x2="27.6146" y2="14.9998" gradientUnits="userSpaceOnUse">
<stop stop-color="#F58E44"/>
<stop offset="1" stop-color="#EF4D6B"/>
</linearGradient>
<linearGradient id="paint4_linear_37_474" x1="6.18299" y1="15.7095" x2="6.18299" y2="27.2861" gradientUnits="userSpaceOnUse">
<stop stop-color="#F58E44"/>
<stop offset="1" stop-color="#EF4D6B"/>
</linearGradient>
<linearGradient id="paint5_linear_37_474" x1="27.1166" y1="19.2756" x2="27.1166" y2="26.636" gradientUnits="userSpaceOnUse">
<stop stop-color="#F58E44"/>
<stop offset="1" stop-color="#EF4D6B"/>
</linearGradient>
<linearGradient id="paint6_linear_37_474" x1="39.1018" y1="0" x2="39.1018" y2="7.36047" gradientUnits="userSpaceOnUse">
<stop stop-color="#F58E44"/>
<stop offset="1" stop-color="#EF4D6B"/>
</linearGradient>
</defs>
</svg>
